# xmcd
#
# Track frame offsets:
#	150
#	20585
#	35922
#	48702
#	64967
#	78111
#	95449
#	108895
#	123708
#	137887
#
# Disc length: 2061 seconds
#
# Revision: 0
# Processed by: cddbd v1.4PL0 Copyright (c) Steve Scherf et al.
# Submitted via: dBpowerAMP V4.0
#
DISCID=8e080b0a
DTITLE=Damon Troy - Blowin' Like A Hurricane
DYEAR=2002
DGENRE=Country/ Cajun
TTITLE0=Wild Child
TTITLE1=If That's All It Takes
TTITLE2=Whatcha Doin' To Me
TTITLE3=Party Time
TTITLE4=What A Way To Go
TTITLE5=She's Mine
TTITLE6=Who's Gonna Make The Pretty Girls Dance
TTITLE7=The Player
TTITLE8=What Do You Think Of Me Now
TTITLE9=Blowin' Like A Hurricane
EXTD=MTE Records
EXTT0=
EXTT1=
EXTT2=
EXTT3=
EXTT4=
EXTT5=
EXTT6=
EXTT7=
EXTT8=
EXTT9=
PLAYORDER=
